<?xml version="1.0" encoding="utf-8"?>
<!-- Generator: Adobe Illustrator 22.0.0, SVG Export Plug-In . SVG Version: 6.00 Build 0)  -->
<svg version="1.1" id="圖層_1" xmlns="http://www.w3.org/2000/svg" xmlns:xlink="http://www.w3.org/1999/xlink" x="0px" y="0px"
	 viewBox="0 0 70 70" style="enable-background:new 0 0 70 70;" xml:space="preserve">
<style type="text/css">
	.st0{fill:#FFFFFF;}
</style>
<g>
	<path class="st0" d="M35,0c-6.9,0-13.7,2.1-19.4,5.9C9.8,9.7,5.3,15.2,2.7,21.6C0,28-0.7,35,0.7,41.8c1.4,6.8,4.7,13,9.6,17.9
		c4.9,4.9,11.1,8.2,17.9,9.6s13.8,0.7,20.2-2c6.4-2.6,11.9-7.1,15.7-12.9C67.9,48.7,70,41.9,70,35c0-4.6-0.9-9.1-2.7-13.4
		s-4.3-8.1-7.6-11.4C56.5,7,52.6,4.4,48.4,2.7C44.1,0.9,39.6,0,35,0z M35,38.2l-5.5,3.2V28.7l5.5,3.2l5.5,3.2L35,38.2z"/>
</g>
</svg>
